<svg width="44" height="40" viewBox="0 0 44 40" fill="none" xmlns="http://www.w3.org/2000/svg">
<g filter="url(#filter0_d_48_61)">
<path d="M25.5 4C25.5 5.933 23.933 7.5 22 7.5C20.067 7.5 18.5 5.933 18.5 4C18.5 2.067 20.067 0.5 22 0.5C23.933 0.5 25.5 2.067 25.5 4Z" fill="#FF0101" stroke="black"/>
<path d="M32.42 31.5H18.5V31C18.5 29.6161 19.6161 28.5 21 28.5H27C27.8361 28.5 28.5 27.8361 28.5 27C28.5 26.1639 27.8361 25.5 27 25.5H21C17.9639 25.5 15.5 27.9639 15.5 31V31.5H11.58C9.87614 31.5 8.5 30.1239 8.5 28.42C8.5 27.1651 9.27496 26.0283 10.4262 25.564C10.4264 25.564 10.4266 25.5639 10.4269 25.5638L18.1855 22.4643L18.5 22.3387V22V17.5V16.1637L17.6228 17.1718C14.2019 21.103 9.67828 23.3572 4.5 23.4934V20.4922C8.92427 20.354 12.7225 18.3783 15.6023 14.9623L15.6033 14.961L18.2833 11.761L18.2833 11.761L18.2855 11.7584C18.9497 10.9544 19.9279 10.5 20.96 10.5H23.06C24.0921 10.5 25.0703 10.9544 25.7345 11.7584L25.7367 11.761L28.4166 14.961C31.2777 18.3784 35.0759 20.354 39.5 20.4922V23.4934C34.3217 23.3572 29.7981 21.103 26.3772 17.1718L25.5 16.1637V17.5V22V22.3387L25.8145 22.4643L33.5731 25.5638C33.5734 25.5639 33.5737 25.564 33.574 25.5641C34.7251 26.0284 35.5 27.1652 35.5 28.42C35.5 30.1239 34.1239 31.5 32.42 31.5Z" fill="#FF0101" stroke="black"/>
</g>
<defs>
<filter id="filter0_d_48_61" x="0" y="0" width="44" height="40" filterUnits="userSpaceOnUse" color-interpolation-filters="sRGB">
<feFlood flood-opacity="0" result="BackgroundImageFix"/>
<feColorMatrix in="SourceAlpha" type="matrix" values="0 0 0 0 0 0 0 0 0 0 0 0 0 0 0 0 0 0 127 0" result="hardAlpha"/>
<feOffset dy="4"/>
<feGaussianBlur stdDeviation="2"/>
<feComposite in2="hardAlpha" operator="out"/>
<feColorMatrix type="matrix" values="0 0 0 0 0 0 0 0 0 0 0 0 0 0 0 0 0 0 0.25 0"/>
<feBlend mode="normal" in2="BackgroundImageFix" result="effect1_dropShadow_48_61"/>
<feBlend mode="normal" in="SourceGraphic" in2="effect1_dropShadow_48_61" result="shape"/>
</filter>
</defs>
</svg>
